<?xml version="1.0" encoding="UTF-8" standalone="no"?>
<svg
   xmlns:dc="http://purl.org/dc/elements/1.1/"
   xmlns:cc="http://creativecommons.org/ns#"
   xmlns:rdf="http://www.w3.org/1999/02/22-rdf-syntax-ns#"
   xmlns:svg="http://www.w3.org/2000/svg"
   xmlns="http://www.w3.org/2000/svg"
   xmlns:xlink="http://www.w3.org/1999/xlink"
   xmlns:sodipodi="http://sodipodi.sourceforge.net/DTD/sodipodi-0.dtd"
   xmlns:inkscape="http://www.inkscape.org/namespaces/inkscape"
   inkscape:version="1.0beta1 (76ce730, 2019-10-19)"
   sodipodi:docname="303378.svg"
   id="svg16"
   preserveAspectRatio="xMidYMid meet"
   viewBox="0 0 1280.000000 1277.000000"
   height="1277.000000pt"
   width="1280.000000pt"
   version="1.0">
  <defs
     id="defs20">
    <style
       id="style22">
      .cls-1 {
        fill: #fff;
      }

      .cls-2 {
        fill: url(#linear-gradient);
      }

      .cls-3 {
        fill: url(#linear-gradient-2);
      }

      .cls-4 {
        fill: url(#linear-gradient-3);
      }

      .cls-5 {
        fill: url(#linear-gradient-4);
      }

      .cls-6 {
        fill: url(#linear-gradient-5);
      }

      .cls-7 {
        fill: url(#linear-gradient-6);
      }

      .cls-8 {
        fill: url(#linear-gradient-7);
      }

      .cls-9 {
        fill: url(#linear-gradient-8);
      }

      .cls-10 {
        fill: url(#linear-gradient-9);
      }

      .cls-11 {
        fill: url(#linear-gradient-10);
      }

      .cls-12 {
        fill: #12bfdb;
        opacity: 0.15;
      }

      .cls-13 {
        fill: url(#linear-gradient-11);
      }

      .cls-14 {
        opacity: 0.24;
        fill: url(#linear-gradient-12);
      }
    </style>
    <linearGradient
       id="linear-gradient"
       x1="0.94"
       y1="-0.008"
       x2="0.138"
       y2="0.921"
       gradientUnits="objectBoundingBox">
      <stop
         offset="0"
         stop-color="#8defff"
         id="stop24" />
      <stop
         offset="0.207"
         stop-color="#66dcf8"
         id="stop26" />
      <stop
         offset="0.439"
         stop-color="#42cbf2"
         id="stop28" />
      <stop
         offset="0.655"
         stop-color="#28beed"
         id="stop30" />
      <stop
         offset="0.849"
         stop-color="#18b7ea"
         id="stop32" />
      <stop
         offset="1"
         stop-color="#12b4e9"
         id="stop34" />
    </linearGradient>
    <linearGradient
       id="linear-gradient-2"
       x1="0.426"
       y1="0.167"
       x2="0.728"
       y2="1.138"
       gradientUnits="objectBoundingBox">
      <stop
         offset="0"
         stop-color="#31d2f7"
         id="stop37" />
      <stop
         offset="0.202"
         stop-color="#27c9f3"
         id="stop39" />
      <stop
         offset="0.649"
         stop-color="#18b9ec"
         id="stop41" />
      <stop
         offset="1"
         stop-color="#12b4e9"
         id="stop43" />
    </linearGradient>
    <linearGradient
       id="linear-gradient-3"
       x1="0.5"
       y1="1.116"
       x2="0.5"
       y2="-0.299"
       gradientUnits="objectBoundingBox">
      <stop
         offset="0.001"
         stop-color="#31d2f7"
         id="stop46" />
      <stop
         offset="0.36"
         stop-color="#1fbbe7"
         id="stop48" />
      <stop
         offset="1"
         stop-color="#0295ce"
         id="stop50" />
    </linearGradient>
    <linearGradient
       id="linear-gradient-4"
       x1="0.515"
       y1="-0.079"
       x2="0.479"
       y2="1.318"
       gradientUnits="objectBoundingBox">
      <stop
         offset="0"
         stop-color="#24ddfc"
         id="stop53" />
      <stop
         offset="0.452"
         stop-color="#14bbe6"
         id="stop55" />
      <stop
         offset="1"
         stop-color="#0295ce"
         id="stop57" />
    </linearGradient>
    <linearGradient
       id="linear-gradient-5"
       x1="0.5"
       y1="0.01"
       x2="0.5"
       y2="1.009"
       xlink:href="#linear-gradient" />
    <linearGradient
       id="linear-gradient-6"
       x1="1.155"
       y1="0.942"
       x2="0.054"
       y2="-0.057"
       gradientUnits="objectBoundingBox">
      <stop
         offset="0"
         stop-color="#0295ce"
         id="stop61" />
      <stop
         offset="0.999"
         stop-color="#31d2f7"
         id="stop63" />
    </linearGradient>
    <linearGradient
       id="linear-gradient-7"
       x1="0.5"
       y1="-0.086"
       x2="0.5"
       y2="1.065"
       gradientUnits="objectBoundingBox">
      <stop
         offset="0"
         stop-color="#8defff"
         id="stop66" />
      <stop
         offset="0.134"
         stop-color="#83e9fc"
         id="stop68" />
      <stop
         offset="0.357"
         stop-color="#6ad8f3"
         id="stop70" />
      <stop
         offset="0.642"
         stop-color="#40bde4"
         id="stop72" />
      <stop
         offset="0.975"
         stop-color="#0698d0"
         id="stop74" />
      <stop
         offset="0.999"
         stop-color="#0295ce"
         id="stop76" />
    </linearGradient>
    <linearGradient
       id="linear-gradient-8"
       x1="0.494"
       y1="1.053"
       x2="0.5"
       y2="0.421"
       gradientUnits="objectBoundingBox">
      <stop
         offset="0.006"
         stop-color="#0295ce"
         id="stop79" />
      <stop
         offset="0.53"
         stop-color="#12b4e9"
         id="stop81" />
      <stop
         offset="0.998"
         stop-color="#8defff"
         id="stop83" />
    </linearGradient>
    <linearGradient
       id="linear-gradient-9"
       x1="-1.647"
       y1="-1.136"
       x2="1.468"
       y2="1.247"
       gradientUnits="objectBoundingBox">
      <stop
         offset="0"
         stop-color="#12b4e9"
         id="stop86" />
      <stop
         offset="0.999"
         stop-color="#8defff"
         id="stop88" />
    </linearGradient>
    <linearGradient
       id="linear-gradient-10"
       x1="0.5"
       y1="-0.314"
       x2="0.5"
       y2="0.466"
       gradientUnits="objectBoundingBox">
      <stop
         offset="0.112"
         stop-color="#12b4e9"
         id="stop91" />
      <stop
         offset="1"
         stop-color="#8defff"
         stop-opacity="0.502"
         id="stop93" />
    </linearGradient>
    <linearGradient
       id="linear-gradient-11"
       x1="0.78"
       y1="-0.226"
       x2="0.221"
       y2="1.419"
       gradientUnits="objectBoundingBox">
      <stop
         offset="0"
         stop-color="#31d2f7"
         id="stop96" />
      <stop
         offset="0.36"
         stop-color="#1fbbe7"
         id="stop98" />
      <stop
         offset="0.999"
         stop-color="#0295ce"
         id="stop100" />
    </linearGradient>
    <linearGradient
       id="linear-gradient-12"
       x1="0"
       y1="0.5"
       x2="0.999"
       y2="0.5"
       xlink:href="#linear-gradient-6" />
  </defs>
  <sodipodi:namedview
     inkscape:current-layer="svg16"
     inkscape:window-maximized="0"
     inkscape:window-y="62"
     inkscape:window-x="1963"
     inkscape:cy="841.3214"
     inkscape:cx="422.85714"
     inkscape:zoom="0.35"
     showgrid="false"
     id="namedview18"
     inkscape:window-height="855"
     inkscape:window-width="1440"
     inkscape:pageshadow="2"
     inkscape:pageopacity="0"
     guidetolerance="10"
     gridtolerance="10"
     objecttolerance="10"
     borderopacity="1"
     inkscape:document-rotation="0"
     bordercolor="#666666"
     pagecolor="#ffffff" />
  <metadata
     id="metadata10">
Created by potrace 1.15, written by Peter Selinger 2001-2017
<rdf:RDF>
  <cc:Work
     rdf:about="">
    <dc:format>image/svg+xml</dc:format>
    <dc:type
       rdf:resource="http://purl.org/dc/dcmitype/StillImage" />
  </cc:Work>
</rdf:RDF>
</metadata>
  <g
     style="fill:#1fb5e7;fill-opacity:0.99215686"
     id="g14"
     stroke="none"
     fill="#000000"
     transform="translate(0.000000,1277.000000) scale(0.100000,-0.100000)">
    <path
       style="fill:#1fb5e7;fill-opacity:0.99215686"
       id="path12"
       d="M2750 12751 c-116 -26 -186 -52 -295 -110 -299 -157 -485 -326 -1104 -1004 -79 -86 -271 -277 -427 -422 -320 -301 -448 -431 -570 -584 -148 -183 -238 -344 -290 -517 -24 -78 -28 -106 -28 -234 -1 -176 13 -238 89 -395 133 -276 388 -564 1000 -1130 276 -255 599 -572 1175 -1154 437 -441 795 -808 795 -814 0 -12 -1837 -1835 -2267 -2250 -525 -506 -711 -761 -804 -1098 -13 -46 -18 -101 -18 -194 0 -152 19 -236 87 -375 60 -123 147 -232 362 -457 105 -109 323 -340 485 -513 580 -622 785 -826 1149 -1146 240 -212 346 -280 509 -326 111 -32 292 -31 417 1 355 92 700 348 1234 916 410 436 1057 1110 1286 1340 444 446 749 702 869 730 33 7 53 -13 1756 -1730 698 -703 847 -844 1040 -981 419 -297 777 -346 1153 -158 203 101 279 166 802 683 595 589 869 857 1067 1044 373 352 518 591 535 882 12 221 -66 463 -232 717 -184 281 -425 535 -985 1039 -219 197 -451 424 -900 879 -333 337 -656 658 -719 714 -155 137 -176 165 -175 227 0 38 8 59 35 99 19 27 463 474 987 992 1735 1716 1773 1755 1841 1853 79 114 132 225 162 340 20 75 23 114 23 230 -1 162 -19 243 -83 381 -83 177 -180 299 -487 614 -116 118 -334 357 -486 531 -456 523 -681 753 -933 954 -162 130 -277 205 -420 275 -404 199 -747 166 -1087 -104 -58 -47 -211 -190 -340 -319 -262 -263 -2071 -2052 -2303 -2278 -161 -156 -197 -182 -261 -183 -57 -1 -98 30 -200 149 -47 55 -208 224 -358 375 -1608 1625 -2172 2191 -2240 2249 -224 189 -409 268 -646 277 -89 3 -134 0 -200 -15z" />
  </g>
</svg>
